<svg width="21" height="29" viewBox="0 0 21 29" fill="none" xmlns="http://www.w3.org/2000/svg">
<path d="M19.7 10.5C19.2 10 18.5 9.7 17.7 9.7V6.7C17.7 4.9 16.9 3.2 15.6 2C14.3 0.8 12.6 0.100006 10.7 0.100006C8.79999 0.100006 7.09999 0.8 5.79999 2C4.49999 3.2 3.7 4.9 3.7 6.7V9.7C2.9 9.7 2.19999 10 1.69999 10.5C1.19999 11 0.899994 11.7 0.899994 12.5V25.5C0.899994 26.3 1.19999 27 1.69999 27.5C2.19999 28 2.9 28.3 3.7 28.3H17.6C18.4 28.3 19.1 28 19.6 27.5C20.1 27 20.4 26.3 20.4 25.5V12.5C20.5 11.8 20.2 11 19.7 10.5ZM5.59999 6.7C5.59999 5.4 6.09999 4.19999 7.09999 3.39999C7.99999 2.49999 9.3 2 10.7 2C12.1 2 13.4 2.49999 14.3 3.39999C15.2 4.29999 15.8 5.4 15.8 6.7V9.7H5.59999V6.7ZM18.6 25.5C18.6 25.8 18.5 26 18.3 26.2C18.1 26.4 17.9 26.5 17.6 26.5H3.7C3.4 26.5 3.19999 26.4 2.99999 26.2C2.79999 26 2.69999 25.8 2.69999 25.5V12.5C2.69999 12.2 2.79999 12 2.99999 11.8C3.19999 11.6 3.4 11.5 3.7 11.5H17.6C17.9 11.5 18.1 11.6 18.3 11.8C18.5 12 18.6 12.2 18.6 12.5V25.5Z" fill="#2F80ED"/>
<path d="M12.3 17.3C12.3 16.4 11.6 15.6 10.6 15.6C9.69999 15.6 8.89999 16.3 8.89999 17.3C8.89999 17.9 9.19999 18.4 9.59999 18.7L9.2 22.2H11.8L11.4 18.8C12 18.5 12.3 18 12.3 17.3Z" fill="#2F80ED"/>
</svg>
