<svg width="21" height="24" viewBox="0 0 21 24" fill="none" xmlns="http://www.w3.org/2000/svg">
<path d="M14.1 12.1C15.8 11 16.9 9.09999 16.9 6.89999C16.9 3.49999 14.1 0.699997 10.7 0.699997C7.3 0.699997 4.5 3.49999 4.5 6.89999C4.5 9.09999 5.6 11 7.3 12.1C3.4 13.5 0.5 17.3 0.5 21.7C0.5 22.4 0.6 23.1 0.7 23.8L2.3 23.5C2.2 22.9 2.1 22.4 2.1 21.8C2.1 19.4 3.1 17.3 4.6 15.7C6.1 14.2 8.1 13.3 10.4 13.2C10.5 13.2 10.6 13.2 10.7 13.2C10.8 13.2 10.9 13.2 11 13.2C13.2 13.3 15.3 14.2 16.8 15.7C18.4 17.3 19.3 19.4 19.3 21.8C19.3 22.4 19.2 23 19.1 23.5L20.7 23.8C20.8 23.1 20.9 22.4 20.9 21.7C20.8 17.3 18 13.5 14.1 12.1ZM7.4 10.2C6.6 9.4 6.1 8.19999 6.1 6.89999C6.1 5.59999 6.6 4.50001 7.4 3.60001C8.2 2.80001 9.4 2.3 10.7 2.3C12 2.3 13.1 2.80001 14 3.60001C14.8 4.40001 15.3 5.59999 15.3 6.89999C15.3 8.19999 14.8 9.3 14 10.2C13.2 11 12.2 11.5 11.1 11.5C11 11.5 10.9 11.5 10.8 11.5C10.7 11.5 10.6 11.5 10.5 11.5C9.2 11.4 8.2 10.9 7.4 10.2Z" fill="#2F80ED"/>
</svg>
