<svg width="125" height="76" viewBox="0 0 125 76" fill="none" xmlns="http://www.w3.org/2000/svg">
<path d="M73 36.8C78.4 33.2 81.9 27.1 81.9 20.1C81.9 9 72.9 0 61.8 0C50.7 0 41.7 9 41.7 20.1C41.7 27.1 45.3 33.2 50.6 36.8L51.4 37.4L50.5 37.7C37.7 42.3 28.5 54.6 28.5 68.9C28.5 71 28.7 73.1 29.1 75.1L33.4 74.2C33.1 72.5 32.9 70.7 32.9 68.9C32.9 60.9 36.1 53.7 41.3 48.5C46.3 43.5 53.1 40.3 60.7 40.1C61.1 40.1 61.4 40.2 61.7 40.2C62 40.2 62.3 40.2 62.7 40.1C70.3 40.4 77.1 43.5 82.1 48.5C87.3 53.7 90.5 60.9 90.5 68.9C90.5 70.7 90.3 72.5 90 74.2L94.3 75.1C94.7 73.1 94.9 71 94.9 68.9C94.9 54.5 85.7 42.3 72.9 37.7L72 37.4L73 36.8ZM62.9 35.7C62.5 35.7 62.2 35.7 61.9 35.7C61.6 35.7 61.2 35.7 60.9 35.7C57 35.4 53.5 33.8 50.8 31.2C48 28.4 46.2 24.4 46.2 20.1C46.2 15.8 48 11.8 50.8 9C53.6 6.2 57.6 4.4 61.9 4.4C66.2 4.4 70.2 6.2 73 9C75.8 11.8 77.6 15.8 77.6 20.1C77.6 24.4 75.8 28.4 73 31.2C70.4 33.8 66.9 35.5 62.9 35.7Z" fill="white"/>
<path d="M110.8 48C114.1 45.8 116.4 42 116.4 37.6C116.4 30.7 110.8 25.1 103.9 25.1C97 25.1 91.4 30.7 91.4 37.6C91.4 41.9 93.6 45.7 97 48C94 49.1 91.4 50.8 89.3 53C85.7 56.7 88.7 58.2 91.8 55.1C94.8 52.1 98.8 50.2 103.3 50.1C103.5 50.1 103.7 50.1 103.9 50.1C104.1 50.1 104.3 50.1 104.5 50.1C109 50.3 113.1 52.1 116 55.1C119.1 58.2 121 62.5 121 67.3C121 68.5 120.9 69.6 120.7 70.8L123.9 71.5C124.2 70.2 124.3 68.8 124.3 67.4C124.3 58.4 118.7 50.8 110.8 48ZM97.4 44.1C95.7 42.4 94.7 40.1 94.7 37.6C94.7 35 95.7 32.8 97.4 31.1C99.1 29.4 101.4 28.4 103.9 28.4C106.5 28.4 108.7 29.4 110.4 31.1C112.1 32.8 113.1 35.1 113.1 37.6C113.1 40.2 112.1 42.4 110.4 44.1C108.9 45.6 106.8 46.6 104.5 46.8C104.3 46.8 104.1 46.8 103.9 46.8C103.7 46.8 103.5 46.8 103.3 46.8C101 46.6 98.9 45.7 97.4 44.1Z" fill="white"/>
<path d="M27.3 48C30.6 45.8 32.9 42 32.9 37.6C32.9 30.7 27.3 25.1 20.4 25.1C13.5 25.1 7.89999 30.7 7.89999 37.6C7.89999 41.9 10.1 45.7 13.5 48C5.6 50.8 0 58.4 0 67.2C0 68.6 0.0999939 70 0.399994 71.3L3.6 70.6C3.4 69.5 3.3 68.3 3.3 67.1C3.3 62.3 5.2 58.1 8.3 54.9C11.3 51.9 15.3 50 19.8 49.9C20 49.9 20.2 49.9 20.4 49.9C20.6 49.9 20.8 49.9 21 49.9C25.5 50.1 29.6 51.9 32.5 54.9C35.6 58 38.6 56.5 35 52.8C32.9 50.8 30.3 49 27.3 48ZM13.9 44.1C12.2 42.4 11.2 40.1 11.2 37.6C11.2 35 12.2 32.8 13.9 31.1C15.6 29.4 17.9 28.4 20.4 28.4C23 28.4 25.2 29.4 26.9 31.1C28.6 32.8 29.6 35.1 29.6 37.6C29.6 40.2 28.6 42.4 26.9 44.1C25.4 45.6 23.3 46.6 21 46.8C20.8 46.8 20.6 46.8 20.4 46.8C20.2 46.8 20 46.8 19.8 46.8C17.5 46.6 15.4 45.7 13.9 44.1Z" fill="white"/>
</svg>
